<svg height="438pt" viewBox="0 -22 438.85623 438" width="438pt" xmlns="http://www.w3.org/2000/svg"><path d="m436.703125 95.109375c-1.734375-2.0625-4.292969-3.253906-6.988281-3.253906h-342.761719l-13.765625-72.878907c-.058594-.324218-.140625-.648437-.230469-.960937-3.199219-10.519531-12.566406-17.585937-23.300781-17.585937h-40.511719c-5.050781 0-9.144531 4.089843-9.144531 9.140624 0 5.050782 4.09375 9.144532 9.144531 9.144532h40.511719c2.507812 0 4.746094 1.6875 5.671875 4.238281l59.976563 317.460937c.8125 4.320313 4.585937 7.449219 8.980468 7.449219h37.867188c-4.132813 4.9375-6.722656 11.277344-6.722656 18.285157 0 15.542968 12.300781 28.195312 27.425781 28.195312s27.429687-12.652344 27.429687-28.195312c0-7.007813-2.589844-13.347657-6.722656-18.285157h104.875c-4.132812 4.9375-6.722656 11.277344-6.722656 18.285157 0 15.542968 12.304687 28.195312 27.429687 28.195312s27.425781-12.652344 27.425781-28.195312c0-7.007813-2.589843-13.347657-6.722656-18.285157h34.152344c5.046875 0 9.144531-4.089843 9.144531-9.144531s-4.097656-9.144531-9.144531-9.144531h-252.140625l-6.90625-36.570313h273.238281c4.449219 0 8.253906-3.207031 9.007813-7.589844l31.523437-182.859374c.460938-2.65625-.28125-5.382813-2.019531-7.445313zm-107.558594 261.125c5.039063 0 9.140625 4.449219 9.140625 9.914063 0 5.460937-4.101562 9.910156-9.140625 9.910156-5.042969 0-9.144531-4.449219-9.144531-9.910156 0-5.464844 4.101562-9.914063 9.144531-9.914063zm-146.289062 0c5.042969 0 9.144531 4.449219 9.144531 9.914063 0 5.460937-4.101562 9.910156-9.144531 9.910156-5.039063 0-9.140625-4.449219-9.140625-9.910156 0-5.464844 4.101562-9.914063 9.140625-9.914063zm-18.285157-81.515625h-43.0625l-8.597656-45.71875h51.660156zm0-64.003906h-55.097656l-6.878906-36.574219h61.976562zm0-54.859375h-65.417968l-8.59375-45.714844h74.011718zm82.285157 118.863281h-64v-45.71875h64zm0-64.003906h-64v-36.574219h64zm0-54.859375h-64v-45.714844h64zm82.289062 118.863281h-64v-45.71875h64zm0-64.003906h-64v-36.574219h64zm0-54.859375h-64v-45.714844h64zm61.347657 118.863281h-43.0625v-45.71875h50.941406zm11.03125-64.003906h-54.09375v-36.574219h60.398437zm9.457031-54.859375h-63.550781v-45.714844h71.433593zm0 0"/></svg>